<svg width="16" height="16" viewBox="0 0 200 200" fill="none" xmlns="http://www.w3.org/2000/svg">
    <path fillRule="evenodd" clipRule="evenodd" d="M0 184C0 192.837 7.16344 200 16 200H184C192.837 200 200 192.837 200 184V174H176V162H200V44H176V32H200V16C200 7.16344 192.837 0 184 0H16C7.16344 0 0 7.16344 0 16V32H24V44H0V162H24V174H0V184Z" fill="black"/>
    <path d="M146.061 143.252C150.873 138.44 154.935 132.643 158.248 125.859C161.561 119.075 163.77 112.134 164.874 105.035C165.979 97.9353 165.84 91.0538 164.458 84.3899C163.076 77.7261 160.099 72.1051 155.527 67.5269L141.328 53.3283L136.596 86.4582L151.267 86.4582C153.003 92.7686 152.845 99.8679 150.794 107.756C148.743 115.644 145.47 122.625 140.973 128.699L98.7328 86.4582L112.931 72.2597L103.466 62.794L89.2672 76.9925L83.7061 71.4314C85.4415 67.6452 85.9921 63.6617 85.3578 59.481C84.7236 55.3004 82.8715 51.6719 79.8015 48.5955C75.8575 44.6515 71.1246 42.6795 65.603 42.6795C60.0814 42.6795 55.3485 44.6515 51.4045 48.5955C47.4605 52.5395 45.4885 57.2724 45.4885 62.794C45.4885 68.3156 47.4605 73.0485 51.4045 76.9925C54.4808 80.0689 58.1093 81.9241 62.29 82.5583C66.4707 83.1925 70.4542 82.6388 74.2404 80.8971L79.8015 86.4582L65.603 100.657L75.0687 110.122L89.2672 95.9239L131.508 138.164C125.434 142.661 118.453 145.934 110.565 147.985C102.677 150.036 95.5776 150.194 89.2672 148.458L89.2672 133.787L56.1373 138.519L70.3358 152.718C74.9109 157.293 80.5304 160.271 87.1942 161.653C93.858 163.035 100.741 163.173 107.844 162.065C114.946 160.958 121.887 158.749 128.668 155.439C135.449 152.129 141.246 148.067 146.061 143.252ZM70.3358 67.5268C68.9949 68.8678 67.4173 69.5399 65.603 69.543C63.7887 69.5462 62.2111 68.8741 60.8702 67.5268C59.5292 66.1796 58.8603 64.602 58.8634 62.794C58.8666 60.9861 59.5355 59.4085 60.8702 58.0612C62.2048 56.7139 63.7824 56.045 65.603 56.0545C67.4236 56.0639 69.0012 56.7328 70.3358 58.0612C71.6705 59.3895 72.341 60.9687 72.3473 62.7987C72.3536 64.6288 71.6831 66.2048 70.3358 67.5268Z" fill="white"/>
</svg>
